<svg width="70" height="90" viewBox="0 0 70 90" fill="none" xmlns="http://www.w3.org/2000/svg">
<g clip-path="url(#clip0)">
<rect width="70" height="90" rx="1" fill="#ECECEC"/>
<rect x="-10" y="67" width="80" height="23" fill="#1491D1"/>
<path d="M5.924 83V74.456H9.068C10.004 74.456 10.8 74.624 11.456 74.96C12.112 75.296 12.612 75.784 12.956 76.424C13.308 77.056 13.484 77.82 13.484 78.716C13.484 79.62 13.308 80.392 12.956 81.032C12.612 81.672 12.108 82.16 11.444 82.496C10.788 82.832 9.996 83 9.068 83H5.924ZM7.472 81.74H8.972C9.956 81.74 10.692 81.488 11.18 80.984C11.676 80.48 11.924 79.724 11.924 78.716C11.924 76.716 10.94 75.716 8.972 75.716H7.472V81.74ZM18.0529 83.084C17.4209 83.084 16.8729 82.956 16.4089 82.7C15.9529 82.444 15.6009 82.084 15.3529 81.62C15.1049 81.148 14.9809 80.588 14.9809 79.94C14.9809 79.3 15.1049 78.744 15.3529 78.272C15.6009 77.792 15.9529 77.424 16.4089 77.168C16.8729 76.912 17.4209 76.784 18.0529 76.784C18.6689 76.784 19.2049 76.912 19.6609 77.168C20.1249 77.424 20.4809 77.792 20.7289 78.272C20.9849 78.744 21.1129 79.3 21.1129 79.94C21.1129 80.588 20.9849 81.148 20.7289 81.62C20.4809 82.084 20.1249 82.444 19.6609 82.7C19.2049 82.956 18.6689 83.084 18.0529 83.084ZM18.0529 81.932C18.5489 81.932 18.9289 81.768 19.1929 81.44C19.4649 81.104 19.6009 80.604 19.6009 79.94C19.6009 79.284 19.4649 78.792 19.1929 78.464C18.9289 78.128 18.5489 77.96 18.0529 77.96C17.5489 77.96 17.1569 78.128 16.8769 78.464C16.6049 78.792 16.4689 79.284 16.4689 79.94C16.4689 80.604 16.6049 81.104 16.8769 81.44C17.1489 81.768 17.5409 81.932 18.0529 81.932ZM25.5025 83.084C24.8705 83.084 24.3225 82.96 23.8585 82.712C23.4025 82.456 23.0505 82.096 22.8025 81.632C22.5625 81.16 22.4425 80.608 22.4425 79.976C22.4425 79.336 22.5705 78.776 22.8265 78.296C23.0825 77.816 23.4465 77.444 23.9185 77.18C24.3905 76.916 24.9425 76.784 25.5745 76.784C25.9985 76.784 26.4105 76.852 26.8105 76.988C27.2185 77.124 27.5505 77.312 27.8065 77.552L27.3745 78.608C27.1185 78.4 26.8465 78.244 26.5585 78.14C26.2705 78.028 25.9825 77.972 25.6945 77.972C25.1665 77.972 24.7465 78.14 24.4345 78.476C24.1305 78.812 23.9785 79.304 23.9785 79.952C23.9785 80.592 24.1305 81.08 24.4345 81.416C24.7385 81.752 25.1625 81.92 25.7065 81.92C25.9865 81.92 26.2705 81.868 26.5585 81.764C26.8465 81.652 27.1185 81.488 27.3745 81.272L27.8065 82.328C27.5425 82.568 27.2025 82.756 26.7865 82.892C26.3785 83.02 25.9505 83.084 25.5025 83.084ZM31.3573 83.084C30.6133 83.084 30.0533 82.88 29.6773 82.472C29.3093 82.056 29.1253 81.432 29.1253 80.6V76.94H30.6253V80.612C30.6253 81.052 30.7173 81.376 30.9013 81.584C31.0853 81.792 31.3613 81.896 31.7293 81.896C32.1693 81.896 32.5213 81.752 32.7853 81.464C33.0493 81.176 33.1813 80.792 33.1813 80.312V76.94H34.6933V83H33.2293V81.752L33.3853 81.74C33.2093 82.18 32.9453 82.516 32.5933 82.748C32.2413 82.972 31.8293 83.084 31.3573 83.084ZM36.6581 83V78.656C36.6581 78.376 36.6501 78.092 36.6341 77.804C36.6261 77.508 36.6021 77.22 36.5621 76.94H37.9781L38.1101 78.14L37.9781 78.152C38.1381 77.72 38.3941 77.384 38.7461 77.144C39.0981 76.904 39.5141 76.784 39.9941 76.784C40.5621 76.784 41.0061 76.928 41.3261 77.216C41.6541 77.496 41.8661 77.928 41.9621 78.512L41.6741 78.248C41.8341 77.808 42.1061 77.456 42.4901 77.192C42.8741 76.92 43.3221 76.784 43.8341 76.784C44.5141 76.784 45.0221 76.992 45.3581 77.408C45.6941 77.816 45.8621 78.44 45.8621 79.28V83H44.3621V79.328C44.3621 78.864 44.2821 78.524 44.1221 78.308C43.9701 78.084 43.7141 77.972 43.3541 77.972C42.9381 77.972 42.6101 78.12 42.3701 78.416C42.1381 78.704 42.0221 79.104 42.0221 79.616V83H40.5221V79.328C40.5221 78.864 40.4381 78.524 40.2701 78.308C40.1101 78.084 39.8541 77.972 39.5021 77.972C39.0781 77.972 38.7461 78.12 38.5061 78.416C38.2741 78.704 38.1581 79.104 38.1581 79.616V83H36.6581ZM53.019 82.328C52.731 82.568 52.375 82.756 51.951 82.892C51.535 83.02 51.111 83.084 50.679 83.084C50.023 83.084 49.455 82.96 48.975 82.712C48.503 82.464 48.139 82.104 47.883 81.632C47.627 81.16 47.499 80.6 47.499 79.952C47.499 79.328 47.623 78.78 47.871 78.308C48.119 77.828 48.463 77.456 48.903 77.192C49.343 76.92 49.851 76.784 50.427 76.784C50.987 76.784 51.467 76.908 51.867 77.156C52.267 77.396 52.575 77.744 52.791 78.2C53.015 78.656 53.127 79.196 53.127 79.82V80.048H48.819L48.831 79.244H52.239L51.831 79.652C51.839 79.068 51.723 78.624 51.483 78.32C51.251 78.016 50.911 77.864 50.463 77.864C49.983 77.864 49.611 78.036 49.347 78.38C49.083 78.716 48.951 79.2 48.951 79.832C48.951 80.552 49.099 81.084 49.395 81.428C49.691 81.764 50.139 81.932 50.739 81.932C51.067 81.932 51.387 81.88 51.699 81.776C52.019 81.664 52.315 81.504 52.587 81.296L53.019 82.328ZM54.7452 83V78.656C54.7452 78.368 54.7372 78.08 54.7212 77.792C54.7132 77.504 54.6892 77.22 54.6492 76.94H56.0652L56.1972 78.14L56.0652 78.176C56.2572 77.72 56.5412 77.376 56.9172 77.144C57.3012 76.904 57.7412 76.784 58.2372 76.784C59.6773 76.784 60.3973 77.616 60.3973 79.28V83H58.8973V79.34C58.8973 78.868 58.8053 78.524 58.6213 78.308C58.4373 78.084 58.1532 77.972 57.7692 77.972C57.3052 77.972 56.9332 78.12 56.6532 78.416C56.3812 78.704 56.2452 79.088 56.2452 79.568V83H54.7452ZM61.58 78.068V76.94H65.852V78.068H61.58ZM65.852 81.752V82.94C65.692 82.996 65.532 83.032 65.372 83.048C65.22 83.072 65.056 83.084 64.88 83.084C64.2 83.084 63.672 82.892 63.296 82.508C62.928 82.124 62.744 81.572 62.744 80.852V75.464L64.244 74.96V80.78C64.244 81.052 64.288 81.268 64.376 81.428C64.464 81.58 64.58 81.688 64.724 81.752C64.876 81.816 65.044 81.848 65.228 81.848C65.332 81.848 65.432 81.84 65.528 81.824C65.624 81.808 65.732 81.784 65.852 81.752Z" fill="white"/>
<g clip-path="url(#clip1)">
<path d="M46.8958 55H29.3958C27.3863 55 25.75 53.3652 25.75 51.3542V29.4792C25.75 27.4681 27.3863 25.8333 29.3958 25.8333H46.8958C48.9054 25.8333 50.5417 27.4681 50.5417 29.4792V51.3542C50.5417 53.3652 48.9054 55 46.8958 55ZM29.3958 27.2917C28.1898 27.2917 27.2083 28.2731 27.2083 29.4792V51.3542C27.2083 52.5602 28.1898 53.5417 29.3958 53.5417H46.8958C48.1019 53.5417 49.0833 52.5602 49.0833 51.3542V29.4792C49.0833 28.2731 48.1019 27.2917 46.8958 27.2917H29.3958Z" fill="#1491D1"/>
<path d="M23.5625 50.625H22.1041C20.0946 50.625 18.4583 48.9902 18.4583 46.9792V23.6458C18.4583 21.6348 20.0946 20 22.1041 20H39.6041C41.6137 20 43.25 21.6348 43.25 23.6458C43.25 24.0483 42.9233 24.375 42.5208 24.375C42.1183 24.375 41.7916 24.0483 41.7916 23.6458C41.7916 22.4398 40.8102 21.4583 39.6041 21.4583H22.1041C20.8981 21.4583 19.9166 22.4398 19.9166 23.6458V46.9792C19.9166 48.1852 20.8981 49.1667 22.1041 49.1667H23.5625C23.965 49.1667 24.2916 49.4933 24.2916 49.8958C24.2916 50.2983 23.965 50.625 23.5625 50.625Z" fill="#1491D1"/>
<path d="M43.9792 44.7917H32.3125C31.91 44.7917 31.5834 44.465 31.5834 44.0625C31.5834 43.66 31.91 43.3333 32.3125 43.3333H43.9792C44.3817 43.3333 44.7084 43.66 44.7084 44.0625C44.7084 44.465 44.3817 44.7917 43.9792 44.7917Z" fill="#1491D1"/>
<path d="M43.9792 50.625H32.3125C31.91 50.625 31.5834 50.2983 31.5834 49.8958C31.5834 49.4933 31.91 49.1667 32.3125 49.1667H43.9792C44.3817 49.1667 44.7084 49.4933 44.7084 49.8958C44.7084 50.2983 44.3817 50.625 43.9792 50.625Z" fill="#1491D1"/>
<path d="M43.9792 38.9583H32.3125C31.91 38.9583 31.5834 38.6317 31.5834 38.2292C31.5834 37.8267 31.91 37.5 32.3125 37.5H43.9792C44.3817 37.5 44.7084 37.8267 44.7084 38.2292C44.7084 38.6317 44.3817 38.9583 43.9792 38.9583Z" fill="#1491D1"/>
<path d="M43.9792 33.125H32.3125C31.91 33.125 31.5834 32.7983 31.5834 32.3958C31.5834 31.9933 31.91 31.6667 32.3125 31.6667H43.9792C44.3817 31.6667 44.7084 31.9933 44.7084 32.3958C44.7084 32.7983 44.3817 33.125 43.9792 33.125Z" fill="#1491D1"/>
</g>
<path d="M55 0L62.5 7.5L70 15H55V0Z" fill="#D0CFCF"/>
<path d="M70 15L62.5 7.5L55 -1.31134e-06L70 0L70 15Z" fill="white"/>
</g>
<defs>
<clipPath id="clip0">
<rect width="70" height="90" rx="1" fill="white"/>
</clipPath>
<clipPath id="clip1">
<rect width="35" height="35" fill="white" transform="translate(17 20)"/>
</clipPath>
</defs>
</svg>
