<svg width="70" height="90" viewBox="0 0 70 90" fill="none" xmlns="http://www.w3.org/2000/svg">
<g clip-path="url(#clip0)">
<rect width="70" height="90" rx="1" fill="#ECECEC"/>
<rect x="-10" y="67" width="80" height="23" fill="#14A063"/>
<path d="M15.924 83V74.456H17.472V83H15.924ZM19.7182 83V74.456H20.9542L24.1822 81.812H23.5942L26.7982 74.456H28.0342V83H26.6542L26.6422 76.676L27.0502 76.772L24.3862 83H23.3662L20.6422 76.772L21.0742 76.676L21.0862 83H19.7182ZM30.8855 83H29.3255L33.1895 74.456H34.4495L38.3135 83H36.7775L33.6335 75.656H34.0535L30.8855 83ZM31.0295 80.996L31.6175 79.796H35.9735L36.5375 80.996H31.0295ZM43.3482 83.096C42.4602 83.096 41.6922 82.924 41.0442 82.58C40.4042 82.228 39.9122 81.728 39.5682 81.08C39.2322 80.424 39.0642 79.636 39.0642 78.716C39.0642 77.812 39.2322 77.036 39.5682 76.388C39.9122 75.732 40.4002 75.232 41.0322 74.888C41.6642 74.536 42.4122 74.36 43.2762 74.36C43.8762 74.36 44.4362 74.444 44.9562 74.612C45.4762 74.78 45.9162 75.028 46.2762 75.356L45.7482 76.484C45.3402 76.172 44.9442 75.948 44.5602 75.812C44.1762 75.668 43.7562 75.596 43.3002 75.596C42.4282 75.596 41.7642 75.86 41.3082 76.388C40.8602 76.916 40.6362 77.692 40.6362 78.716C40.6362 79.764 40.8682 80.556 41.3322 81.092C41.7962 81.62 42.4882 81.884 43.4082 81.884C43.7602 81.884 44.1042 81.856 44.4402 81.8C44.7842 81.736 45.1082 81.648 45.4122 81.536L45.0522 82.112V79.496H43.2162V78.38H46.4562V82.484C46.1922 82.62 45.8922 82.732 45.5562 82.82C45.2202 82.908 44.8642 82.976 44.4882 83.024C44.1122 83.072 43.7322 83.096 43.3482 83.096ZM48.571 83V74.456H54.283V75.668H50.083V78.044H54.043V79.268H50.083V81.788H54.283V83H48.571Z" fill="white"/>
<path d="M55 0L62.5 7.5L70 15H55V0Z" fill="#D0CFCF"/>
<path d="M70 15L62.5 7.5L55 -1.31134e-06L70 0L70 15Z" fill="white"/>
<path d="M48.7188 21H20.2812C18.469 21 17 22.469 17 24.2812V52.7188C17 54.531 18.469 56 20.2812 56H48.7188C50.531 56 52 54.531 52 52.7188V24.2812C52 22.469 50.531 21 48.7188 21ZM49.8125 52.7188C49.8125 53.3228 49.3228 53.8125 48.7188 53.8125H20.2812C19.6772 53.8125 19.1875 53.3228 19.1875 52.7188V24.2812C19.1875 23.6772 19.6772 23.1875 20.2812 23.1875H48.7188C49.3228 23.1875 49.8125 23.6772 49.8125 24.2812V52.7188Z" fill="#14A063"/>
<path d="M40.7453 39.9109C40.3187 39.4868 39.6298 39.4868 39.2031 39.9109L36.6875 42.4266L31.9953 37.7344C31.5687 37.3103 30.8798 37.3103 30.4531 37.7344L22.7969 45.3906C22.374 45.822 22.3808 46.5144 22.8121 46.9373C23.0128 47.1341 23.2815 47.246 23.5625 47.25H45.4375C46.0415 47.2535 46.5341 46.7667 46.5376 46.1626C46.5393 45.8687 46.4227 45.5866 46.2141 45.3797L40.7453 39.9109Z" fill="#14A063"/>
<path d="M37.7812 36.3125C39.5934 36.3125 41.0625 34.8434 41.0625 33.0312C41.0625 31.2191 39.5934 29.75 37.7812 29.75C35.9691 29.75 34.5 31.2191 34.5 33.0312C34.5 34.8434 35.9691 36.3125 37.7812 36.3125Z" fill="#14A063"/>
</g>
<defs>
<clipPath id="clip0">
<rect width="70" height="90" rx="1" fill="white"/>
</clipPath>
</defs>
</svg>
