<svg width="70" height="90" viewBox="0 0 70 90" fill="none" xmlns="http://www.w3.org/2000/svg">
<g clip-path="url(#clip0)">
<rect width="70" height="90" rx="1" fill="#ECECEC"/>
<rect x="-10" y="67" width="80" height="23" fill="#EB342F"/>
<path d="M18.696 83L14.892 74.456H16.512L19.584 81.632H19.092L22.2 74.456H23.76L19.968 83H18.696ZM24.9324 83V74.456H26.4804V83H24.9324ZM28.7026 83V74.456H31.8466C32.7826 74.456 33.5786 74.624 34.2346 74.96C34.8906 75.296 35.3906 75.784 35.7346 76.424C36.0866 77.056 36.2626 77.82 36.2626 78.716C36.2626 79.62 36.0866 80.392 35.7346 81.032C35.3906 81.672 34.8866 82.16 34.2226 82.496C33.5666 82.832 32.7746 83 31.8466 83H28.7026ZM30.2506 81.74H31.7506C32.7346 81.74 33.4706 81.488 33.9586 80.984C34.4546 80.48 34.7026 79.724 34.7026 78.716C34.7026 76.716 33.7186 75.716 31.7506 75.716H30.2506V81.74ZM38.1915 83V74.456H43.9035V75.668H39.7035V78.044H43.6635V79.268H39.7035V81.788H43.9035V83H38.1915ZM49.4568 83.096C48.6248 83.096 47.9048 82.92 47.2968 82.568C46.6888 82.216 46.2208 81.712 45.8928 81.056C45.5648 80.4 45.4008 79.624 45.4008 78.728C45.4008 77.824 45.5648 77.048 45.8928 76.4C46.2208 75.744 46.6888 75.24 47.2968 74.888C47.9048 74.536 48.6248 74.36 49.4568 74.36C50.2968 74.36 51.0208 74.536 51.6288 74.888C52.2368 75.24 52.7048 75.744 53.0328 76.4C53.3608 77.048 53.5248 77.82 53.5248 78.716C53.5248 79.62 53.3568 80.4 53.0208 81.056C52.6928 81.712 52.2248 82.216 51.6168 82.568C51.0168 82.92 50.2968 83.096 49.4568 83.096ZM49.4568 81.872C50.2408 81.872 50.8568 81.604 51.3048 81.068C51.7528 80.524 51.9768 79.74 51.9768 78.716C51.9768 77.692 51.7528 76.916 51.3048 76.388C50.8568 75.852 50.2408 75.584 49.4568 75.584C48.6808 75.584 48.0688 75.852 47.6208 76.388C47.1728 76.916 46.9488 77.692 46.9488 78.716C46.9488 79.74 47.1728 80.524 47.6208 81.068C48.0688 81.604 48.6808 81.872 49.4568 81.872Z" fill="white"/>
<path d="M52.9575 46.3118H17.0428C15.9164 46.3118 15 45.3958 15 44.2696V24.9581C15 23.832 15.9164 22.9158 17.0428 22.9158H52.9575C54.0834 22.9158 55 23.832 55 24.9581V44.2696C55 45.3958 54.0834 46.3118 52.9575 46.3118ZM17.0428 24.5655C16.8261 24.5655 16.6496 24.7416 16.6496 24.9581V44.2696C16.6496 44.4861 16.8261 44.6623 17.0428 44.6623H52.9575C53.174 44.6623 53.3504 44.4861 53.3504 44.2696V24.9581C53.3504 24.7416 53.1741 24.5655 52.9575 24.5655H17.0428Z" fill="#EB342F"/>
<path d="M30.7298 40.8823C30.4589 40.7341 30.2828 40.458 30.2828 40.1494V29.0784C30.2828 28.7697 30.4553 28.487 30.7298 28.3454C31.0041 28.2038 31.3342 28.2274 31.5858 28.4064L39.3701 33.9418C39.5879 34.0966 39.7169 34.347 39.7169 34.614C39.7169 34.881 39.5879 35.1314 39.3701 35.2862C39.3701 35.2862 33.5316 39.4375 31.5858 40.8215C31.4436 40.9226 31.1371 41.1052 30.7298 40.8823ZM31.9327 30.6771V38.5507L37.4687 34.614L31.9327 30.6771Z" fill="#EB342F"/>
<path d="M54.1753 50.994H38.4096C38.0434 49.5916 36.7657 48.5537 35.2502 48.5537C33.7349 48.5537 32.4575 49.5916 32.0913 50.994H15.8248C15.3694 50.994 15 51.3634 15 51.8189C15 52.2744 15.3694 52.6437 15.8248 52.6437H32.0913C32.4576 54.0461 33.735 55.0842 35.2503 55.0842C36.7658 55.0842 38.0435 54.046 38.4096 52.6437H54.1753C54.6304 52.6437 55 52.2745 55 51.8189C55 51.3634 54.6304 50.994 54.1753 50.994ZM35.2502 53.4344C34.3598 53.4344 33.6349 52.7096 33.6349 51.8188C33.6349 50.9281 34.3598 50.2034 35.2502 50.2034C36.1411 50.2034 36.8658 50.9281 36.8658 51.8188C36.8658 52.7097 36.1411 53.4344 35.2502 53.4344Z" fill="#EB342F"/>
<path d="M55 0L62.5 7.5L70 15H55V0Z" fill="#D0CFCF"/>
<path d="M70 15L62.5 7.5L55 -1.31134e-06L70 0L70 15Z" fill="white"/>
</g>
<defs>
<clipPath id="clip0">
<rect width="70" height="90" rx="1" fill="white"/>
</clipPath>
</defs>
</svg>
