<svg id="Capa_1" enable-background="new 0 0 511 511" height="512" viewBox="0 0 511 511" width="512" xmlns="http://www.w3.org/2000/svg" xmlns:xlink="http://www.w3.org/1999/xlink"><linearGradient id="lg1"><stop offset=".00000036422" stop-color="#a8abff"/><stop offset="1" stop-color="#fac8ff"/></linearGradient><linearGradient id="SVGID_1_" gradientUnits="userSpaceOnUse" x1="122.5" x2="122.5" xlink:href="#lg1" y1="313.5" y2="503.5"/><linearGradient id="SVGID_2_" gradientUnits="userSpaceOnUse" x1="318.5" x2="318.5" xlink:href="#lg1" y1="200.5" y2="350.5"/><linearGradient id="SVGID_3_" gradientUnits="userSpaceOnUse" x1="428.5" x2="428.5" xlink:href="#lg1" y1="23.5" y2="173.5"/><linearGradient id="SVGID_4_" gradientUnits="userSpaceOnUse" x1="82.5" x2="82.5" xlink:href="#lg1" y1="7.5" y2="157.5"/><linearGradient id="Outline_1_" gradientUnits="userSpaceOnUse" x1="255.5" x2="255.5" y1="0" y2="511"><stop offset=".00000011981" stop-color="#174fa3"/><stop offset="1" stop-color="#b044af"/></linearGradient><g><g id="Filled_2_"><circle cx="122.5" cy="408.5" fill="url(#SVGID_1_)" r="95"/><circle cx="318.5" cy="275.5" fill="url(#SVGID_2_)" r="75"/><circle cx="428.5" cy="98.5" fill="url(#SVGID_3_)" r="75"/><circle cx="82.5" cy="82.5" fill="url(#SVGID_4_)" r="75"/><g fill="#fff"><g><circle cx="453.5" cy="390.5" r="40"/><circle cx="310.5" cy="449.5" r="40"/><circle cx="253.5" cy="67.5" r="40"/><circle cx="153.5" cy="227.5" r="40"/></g><path d="m141.172 411.118c3.934-4.417 6.328-10.237 6.328-16.618v-10c0-13.807-11.193-25-25-25s-25 11.193-25 25v10c0 6.381 2.394 12.2 6.328 16.618-18.362 7.399-31.328 25.371-31.328 46.382v31.785c14.524 9.008 31.653 14.215 50 14.215s35.476-5.207 50-14.215v-31.785c0-21.011-12.966-38.983-31.328-46.382z"/><path d="m337.172 282.118c3.934-4.417 6.328-10.237 6.328-16.618v-10c0-13.807-11.193-25-25-25s-25 11.193-25 25v10c0 6.381 2.394 12.2 6.328 16.618-18.362 7.399-31.328 25.371-31.328 46.382v2.887c13.27 11.88 30.787 19.113 50 19.113s36.73-7.233 50-19.113v-2.887c0-21.011-12.966-38.983-31.328-46.382z"/><path d="m447.172 105.118c3.934-4.417 6.328-10.237 6.328-16.618v-10c0-13.807-11.193-25-25-25s-25 11.193-25 25v10c0 6.381 2.394 12.2 6.328 16.618-18.362 7.399-31.328 25.371-31.328 46.382v2.887c13.27 11.88 30.787 19.113 50 19.113s36.73-7.233 50-19.113v-2.887c0-21.011-12.966-38.983-31.328-46.382z"/><path d="m101.172 89.118c3.934-4.418 6.328-10.237 6.328-16.618v-10c0-13.807-11.193-25-25-25s-25 11.193-25 25v10c0 6.381 2.394 12.2 6.328 16.618-18.362 7.399-31.328 25.371-31.328 46.382v2.887c13.27 11.88 30.787 19.113 50 19.113s36.73-7.233 50-19.113v-2.887c0-21.011-12.966-38.983-31.328-46.382z"/></g></g><path id="Outline_2_" d="m460.399 343.507-14.851-164.288c37.337-7.877 65.452-41.072 65.452-80.719 0-45.491-37.01-82.5-82.5-82.5-39.113 0-71.933 27.37-80.373 63.957l-47.221-9.604c.057-.945.094-1.895.094-2.853 0-26.191-21.309-47.5-47.5-47.5-23.951 0-43.807 17.822-47.031 40.899l-42.981 5.928c-7.344-38.019-40.857-66.827-80.988-66.827-45.49 0-82.5 37.009-82.5 82.5s37.01 82.5 82.5 82.5c7.919 0 15.572-1.145 22.826-3.237l15.849 30.977c-9.326 8.678-15.175 21.046-15.175 34.76 0 20.231 12.719 37.539 30.577 44.373l-6.877 34.384c-2.379-.166-4.779-.257-7.2-.257-56.519 0-102.5 45.981-102.5 102.5s45.981 102.5 102.5 102.5 102.5-45.981 102.5-102.5c0-17.58-4.451-34.138-12.281-48.613l41.134-33.224c12.247 15.441 29.888 26.402 50.056 30.018l-.791 45.895c-22.698 3.558-40.118 23.243-40.118 46.924 0 26.191 21.309 47.5 47.5 47.5s47.5-21.309 47.5-47.5c0-1.811-.112-3.597-.31-5.356l57.378-25.778c8.641 11.886 22.645 19.634 38.432 19.634 26.191 0 47.5-21.309 47.5-47.5 0-23.848-17.668-43.641-40.601-46.993zm-31.899-177.507c-16.091 0-30.878-5.668-42.489-15.101.216-15.634 8.828-29.618 22.413-36.87 5.532 4.359 12.502 6.971 20.076 6.971s14.544-2.611 20.076-6.971c13.585 7.252 22.197 21.236 22.413 36.87-11.611 9.433-26.398 15.101-42.489 15.101zm-17.5-77.5v-10c0-9.649 7.851-17.5 17.5-17.5s17.5 7.851 17.5 17.5v10c0 9.649-7.851 17.5-17.5 17.5s-17.5-7.851-17.5-17.5zm17.5-57.5c37.22 0 67.5 30.28 67.5 67.5 0 14.182-4.406 27.349-11.907 38.224-3.803-14.449-13.104-26.875-26.097-34.601 1.923-4.146 3.004-8.76 3.004-13.623v-10c0-17.92-14.579-32.5-32.5-32.5s-32.5 14.58-32.5 32.5v10c0 4.863 1.081 9.477 3.004 13.623-12.993 7.726-22.294 20.152-26.097 34.601-7.501-10.875-11.907-24.042-11.907-38.224 0-37.22 30.28-67.5 67.5-67.5zm-130.854 53.997 48.446 9.854c-.052 1.211-.092 2.425-.092 3.649 0 27.354 13.392 51.627 33.952 66.645l-22.69 37.555c-11.564-6.182-24.758-9.7-38.762-9.7-5.519 0-10.91.555-16.128 1.594l-28.859-84.03c10.956-5.113 19.644-14.282 24.133-25.567zm-44.146-49.997c17.921 0 32.5 14.58 32.5 32.5s-14.579 32.5-32.5 32.5-32.5-14.58-32.5-32.5 14.579-32.5 32.5-32.5zm-238.5 47.5c0-37.22 30.28-67.5 67.5-67.5s67.5 30.28 67.5 67.5c0 14.182-4.406 27.349-11.907 38.224-3.803-14.449-13.104-26.875-26.097-34.601 1.923-4.146 3.004-8.76 3.004-13.623v-10c0-17.92-14.579-32.5-32.5-32.5s-32.5 14.58-32.5 32.5v10c0 4.863 1.081 9.477 3.004 13.623-12.993 7.726-22.294 20.152-26.097 34.601-7.501-10.875-11.907-24.042-11.907-38.224zm85-20v10c0 9.649-7.851 17.5-17.5 17.5s-17.5-7.851-17.5-17.5v-10c0-9.649 7.851-17.5 17.5-17.5s17.5 7.851 17.5 17.5zm-17.5 87.5c-16.091 0-30.878-5.668-42.489-15.101.216-15.634 8.828-29.618 22.413-36.87 5.532 4.36 12.503 6.971 20.076 6.971s14.544-2.611 20.076-6.971c13.585 7.252 22.197 21.236 22.413 36.87-11.611 9.433-26.398 15.101-42.489 15.101zm36.866 6.272c27.029-13.562 45.634-41.528 45.634-73.772 0-.247-.016-.49-.019-.737l41.795-5.765c2.418 13.327 10.409 24.73 21.469 31.703l-49.983 79.283c-7.214-4.427-15.694-6.984-24.762-6.984-7.056 0-13.752 1.558-19.778 4.331zm1.634 71.228c0-17.92 14.579-32.5 32.5-32.5s32.5 14.58 32.5 32.5-14.579 32.5-32.5 32.5-32.5-14.58-32.5-32.5zm44 257.461c-12.592 7.027-27.085 11.039-42.5 11.039s-29.908-4.012-42.5-11.039v-27.461c0-15.876 8.665-30.126 22.424-37.471 5.532 4.359 12.502 6.971 20.076 6.971s14.544-2.611 20.076-6.971c13.759 7.345 22.424 21.595 22.424 37.471zm-60-90.461v-10c0-9.649 7.851-17.5 17.5-17.5s17.5 7.851 17.5 17.5v10c0 9.649-7.851 17.5-17.5 17.5s-17.5-7.851-17.5-17.5zm75 79.898v-16.898c0-20.566-10.749-39.116-28.004-49.377 1.923-4.147 3.004-8.76 3.004-13.623v-10c0-17.92-14.579-32.5-32.5-32.5s-32.5 14.58-32.5 32.5v10c0 4.863 1.081 9.477 3.004 13.623-17.255 10.261-28.004 28.811-28.004 49.377v16.898c-18.373-16.052-30-39.642-30-65.898 0-48.248 39.252-87.5 87.5-87.5s87.5 39.252 87.5 87.5c0 26.256-11.627 49.846-30 65.898zm24.583-127.222c-14.485-19.34-35.638-33.406-60.015-38.776l6.691-33.457c.743.035 1.489.057 2.24.057 26.191 0 47.5-21.309 47.5-47.5 0-11.665-4.234-22.354-11.236-30.631l52.471-83.23c3.613.882 7.383 1.361 11.265 1.361 1.882 0 3.735-.122 5.56-.336l28.921 84.212c-30.421 12.161-51.98 41.913-51.98 76.624 0 13.92 3.479 27.039 9.593 38.553zm46.417-71.676c0-37.22 30.28-67.5 67.5-67.5s67.5 30.28 67.5 67.5c0 14.182-4.406 27.349-11.907 38.224-3.803-14.449-13.104-26.875-26.097-34.601 1.923-4.147 3.004-8.76 3.004-13.623v-10c0-17.92-14.579-32.5-32.5-32.5s-32.5 14.58-32.5 32.5v10c0 4.863 1.081 9.477 3.004 13.623-12.993 7.726-22.294 20.152-26.097 34.601-7.501-10.875-11.907-24.042-11.907-38.224zm85-20v10c0 9.649-7.851 17.5-17.5 17.5s-17.5-7.851-17.5-17.5v-10c0-9.649 7.851-17.5 17.5-17.5s17.5 7.851 17.5 17.5zm-59.989 72.399c.216-15.634 8.828-29.618 22.413-36.87 5.532 4.359 12.502 6.971 20.076 6.971s14.544-2.611 20.076-6.971c13.585 7.252 22.197 21.236 22.413 36.87-11.611 9.433-26.398 15.101-42.489 15.101s-30.878-5.668-42.489-15.101zm34.489 154.101c-17.921 0-32.5-14.58-32.5-32.5s14.579-32.5 32.5-32.5 32.5 14.58 32.5 32.5-14.579 32.5-32.5 32.5zm97.764-77.022-54.676 24.564c-6.527-14.036-19.707-24.37-35.469-26.923l.77-44.629c21.151-.099 40.448-8.19 55.012-21.412l37.804 31.37c-3.637 6.713-5.705 14.395-5.705 22.552 0 5.048.799 9.911 2.264 14.478zm-24.211-79.467c10.619-13.886 16.947-31.22 16.947-50.011 0-26.113-12.209-49.414-31.202-64.541l23.011-38.087c10.806 5.207 22.914 8.128 35.691 8.128.719 0 1.428-.036 2.142-.054l14.713 162.767c-9.4 1.632-17.857 6.033-24.503 12.334zm69.447 97.489c-17.921 0-32.5-14.58-32.5-32.5s14.579-32.5 32.5-32.5 32.5 14.58 32.5 32.5-14.579 32.5-32.5 32.5z" fill="url(#Outline_1_)"/></g></svg>