<svg height="512pt" viewBox="0 0 512.0077 512" width="512pt" xmlns="http://www.w3.org/2000/svg" xmlns:xlink="http://www.w3.org/1999/xlink"><linearGradient id="a" gradientTransform="matrix(1.099725 0 0 -1.099725 0 504.206801)" gradientUnits="userSpaceOnUse" x1="13.5792" x2="437.1866" y1="417.7435" y2="-5.8639"><stop offset="0" stop-color="#662d91"/><stop offset=".437" stop-color="#3873b3"/><stop offset="1" stop-color="#00c9dd"/></linearGradient><path d="m503.464844 477.871094h-68.265625v-469.332032c0-4.714843-3.820313-8.53515575-8.535157-8.53515575h-51.199218c-4.710938 0-8.53125 3.82031275-8.53125 8.53515575v469.332032h-25.601563v-366.933594c0-4.710938-3.820312-8.535156-8.535156-8.535156h-51.199219c-4.710937 0-8.53125 3.820312-8.53125 8.535156v366.933594h-25.601562v-273.066406c0-4.714844-3.820313-8.535157-8.535156-8.535157h-51.199219c-4.710938 0-8.535157 3.820313-8.535157 8.535157v273.066406h-25.597656v-179.203125c0-4.710938-3.820312-8.53125-8.535156-8.53125h-51.195312c-4.710938 0-8.535157 3.820312-8.535157 8.53125v179.203125h-51.199219v-469.332032c0-4.714843-3.820312-8.53515575-8.535156-8.53515575h-17.0625c-4.714844 0-8.535156 3.82031275-8.535156 8.53515575 0 4.710938 3.820312 8.53125 8.535156 8.53125h8.53125v85.335938h-8.53125c-4.714844 0-8.535156 3.820312-8.535156 8.53125 0 4.714844 3.820312 8.535156 8.535156 8.535156h8.53125v76.800782h-8.53125c-4.714844 0-8.535156 3.820312-8.535156 8.535156 0 4.710937 3.820312 8.53125 8.535156 8.53125h8.53125v76.800781h-8.53125c-4.714844 0-8.535156 3.820313-8.535156 8.53125 0 4.714844 3.820312 8.535156 8.535156 8.535156h8.53125v76.800781h-8.53125c-4.714844 0-8.535156 3.820313-8.535156 8.535157 0 4.710937 3.820312 8.53125 8.535156 8.53125h8.53125v76.800781h-8.53125c-4.714844 0-8.535156 3.820312-8.535156 8.535156 0 4.710938 3.820312 8.53125 8.535156 8.53125h8.53125v8.535156c0 4.710938 3.820313 8.535157 8.535156 8.535157 4.714844 0 8.535157-3.820313 8.535157-8.535157v-8.535156h78.507812v8.535156c0 4.710938 3.820313 8.535157 8.53125 8.535157 4.714844 0 8.535157-3.820313 8.535157-8.535157v-8.535156h75.09375v8.535156c0 4.710938 3.820312 8.535157 8.53125 8.535157 4.714843 0 8.535156-3.820313 8.535156-8.535157v-8.535156h76.800781v8.535156c0 4.710938 3.820313 8.535157 8.535156 8.535157 4.710938 0 8.53125-3.820313 8.53125-8.535157v-8.535156h76.800781v8.535156c0 4.710938 3.820313 8.535157 8.535157 8.535157 4.714843 0 8.53125-3.820313 8.53125-8.535157v-8.535156h85.335937v8.535156c0 4.710938 3.820313 8.535157 8.53125 8.535157 4.714844 0 8.535156-3.820313 8.535156-8.535157v-17.066406c-.007812-4.71875-3.828124-8.539062-8.542968-8.539062zm-401.066406 0v-170.667969h34.132812v170.667969zm93.867187 0v-264.535156h34.132813v264.535156zm93.867187 0v-358.402344h34.132813v358.402344zm93.867188 0v-460.800782h34.132812v460.800782zm0 0" fill="url(#a)"/></svg>