<svg height="512" viewBox="0 0 60 61" width="512" xmlns="http://www.w3.org/2000/svg"><g id="Page-1" fill="none" fill-rule="evenodd"><g id="044---Money-Bag" fill-rule="nonzero" transform="translate(-1)"><path id="Shape" d="m60 51c0 8.97-12.98 8-29 8s-29 .97-29-8c0-18.97 8.26-33.13 19.73-38.08 5.9148778-2.560043 12.6251222-2.560043 18.54 0v.01c11.47 4.94 19.73 19.1 19.73 38.07z" fill="#e8edfc"/><path id="Shape" d="m36.719 12.7c11.755 4.719 20.281 19.027 20.281 38.3 0 7.1-8.132 7.971-19.462 8.027 12.868.049 22.462-.316 22.462-8.027 0-20.7-9.838-35.676-22.949-39.189" fill="#cad9fc"/><path id="Shape" d="m43.81 3.95c-.4035956 3.24096179-1.621461 6.3269088-3.54 8.97-5.9148778-2.560043-12.6251222-2.560043-18.54 0-1.9194214-2.6416548-3.1342846-5.72871504-3.53-8.97-.0984302-.76393916.2505902-1.51651441.8973299-1.93486749.6467397-.41835307 1.4762512-.42812847 2.1326701-.02513251.9505106.67700249 2.0932265 1.03103412 3.26 1.01 3.25 0 3.25-2 6.5-2s3.25 2 6.51 2c1.1719134.024611 2.3199076-.33347892 3.27-1.02.6600122-.39763204 1.4890011-.38405243 2.1356356.0349837.6466344.41903614.9976812 1.17015073.9043644 1.9350163z" fill="#a4c2f7"/><path id="Shape" d="m40.77 1.98c-.174.108-.349.215-.53.318.4414473.42897606.6529885 1.04207454.57 1.652-.3675146 2.8795819-1.3673955 5.64223112-2.928 8.09.8113613.249835 1.608538.543602 2.388.88 1.918539-2.6430912 3.1364044-5.72903821 3.54-8.97.0933168-.76486557-.25773-1.51598016-.9043644-1.9350163-.6466345-.41903613-1.4756234-.43261574-2.1356356-.0349837z" fill="#7facfa"/><path id="Shape" d="m40.324 59.027c-2.09-.009-4.224-.027-6.324-.027-.556 0-1.108 0-1.656 0 2.688.012 5.396.038 7.98.027z" fill="#fff"/><path id="Shape" d="m24.462 59.027c-11.33-.056-19.462-.927-19.462-8.027 0-18.97 8.26-33.13 19.73-38.08-1.9194214-2.6416548-3.1342846-5.72871504-3.53-8.97-.0875308-.60749203.1197192-1.22032791.558-1.65-.18-.1-.355-.206-.528-.312-.6567403-.40334246-1.4868052-.3934359-2.1337323.0254654-.6469271.41890131-.9955933 1.17225233-.8962677 1.9365346.3957154 3.24128496 1.6105786 6.3283452 3.53 8.97-11.47 4.95-19.73 19.11-19.73 38.08 0 7.711 9.594 8.076 22.462 8.027z" fill="#fff"/><path id="Shape" d="m1.54 42.893 1.983.262c-.33839801 2.6014721-.51307518 5.2216296-.523 7.845h-2c.00997644-2.7109778.19033197-5.4186487.54-8.107z" fill="#fff"/><g fill="#428dff"><path id="Shape" d="m2.159 48c-.55228473.0027614-1.00223852-.4427153-1.00499994-.995-.00276143-.5522847.44271521-1.0022385.99499994-1.005h.01c.55228475 0 1 .4477153 1 1s-.44771525 1-1 1z"/><path id="Shape" d="m41.783 12.5c1.6105143-2.55058382 2.6404992-5.42409485 3.017-8.417.1537017-1.15362723-.3736839-2.29205758-1.3530688-2.9207747s-2.2340277-.63426172-3.2189312-.0142253c-.7903747.57730539-1.7495548.87687339-2.728.852-.9784873.02517546-1.9377626-.27442226-2.728-.852-2.2839475-1.53059009-5.2660525-1.53059009-7.55 0-.7901342.57778234-1.7494811.87740241-2.728.852-.9842283.02306608-1.9483982-.28039076-2.742-.863-.9865263-.61048247-2.2366162-.59743613-3.2101866.03350253-.9735705.63093867-1.4960907 1.76666203-1.3418134 2.91649747.3778557 2.99954723 1.4124121 5.87889194 3.03 8.433-.473.231-.943.469-1.4.731-5.1409899 3.0809797-9.31955359 7.5362672-12.065 12.864-1.41023004 2.5955412-2.54250495 5.3327102-3.378 8.166-.468 1.4-.767 2.84-1.119 4.268-.268 1.445-.568 2.884-.728 4.344-.03827515.2634071.03146073.5311074.1933853.7423624.16192457.2112551.40230977.3481547.6666147.3796376.54490816.0642284 1.04190147-.317051 1.121-.86.15-1.411.449-2.8.7-4.189.34-1.372.626-2.761 1.075-4.1.7972775-2.7063301 1.87827843-5.3208439 3.225-7.8 2.5690206-4.9978297 6.4813175-9.1799044 11.297-12.076 1.997153-1.1405862 4.1546754-1.9739292 6.4-2.472.5395822-.1181889.8811889-.6514178.763-1.191s-.6514178-.8811889-1.191-.763c-1.2577984.2790576-2.491625.6568961-3.69 1.13-1.5623569-2.36554293-2.5575288-5.05983055-2.908-7.873-.0525329-.38136873.1226195-.75825908.448-.964.3294026-.21788056.7566087-.21984383 1.088-.005 1.1020966.77180415 2.4207737 1.17378007 3.766 1.148 1.3475373.02678492 2.6687454-.37521532 3.773-1.148 1.6405246-1.13604622 3.8134754-1.13604622 5.454 0 1.1061656.7734996 2.4295011 1.17550787 3.779 1.148 1.3581533.0255018 2.6891362-.38219927 3.8-1.164.328454-.20288007.7443541-.19857285 1.068536.01106617.3241818.20963901.4987349.58716076.448464.96993383-.3490736 2.81225436-1.3414072 5.50626904-2.9 7.873-1.2025164-.4702566-2.43952-.8470412-3.7-1.127-.5395822-.1187412-1.0732588.2224178-1.192.762s.2224178 1.0732588.762 1.192c1.3827354.3060632 2.734419.7385484 4.038 1.292.0548484.0315808.1128255.0573856.173.077 11.524 4.987 19.002 19.245 19.002 37.114.0731643 1.4299294-.4526094 2.8257119-1.451 3.852-3.289 3.271-12.08 3.225-22.257 3.164-2.8-.016-5.783-.016-8.584 0-10.178.058-18.968.105-22.257-3.164-.99839061-1.0262881-1.52416435-2.4220706-1.451-3.852 0-.5522847-.44771525-1-1-1s-1 .4477153-1 1c-.07330532 1.9625894.66492028 3.8687379 2.041 5.27 3.879 3.857 12.619 3.811 23.678 3.746 2.794-.016 5.768-.016 8.562 0 1.359.007 2.682.015 3.967.015 9.168 0 16.309-.379 19.711-3.761 1.3760797-1.4012621 2.1143053-3.3074106 2.041-5.27 0-18.181-7.522-32.827-19.217-38.5z"/><path id="Shape" d="m25 41.5c0-.5522847-.4477153-1-1-1s-1 .4477153-1 1c0 3.308 3.06 6.042 7 6.444v1.056c0 .5522847.4477153 1 1 1s1-.4477153 1-1v-1.056c3.94-.4 7-3.136 7-6.444s-3.06-6.042-7-6.444v-8.988c2.833.358 5 2.207 5 4.432 0 .5522847.4477153 1 1 1s1-.4477153 1-1c0-3.308-3.06-6.042-7-6.444v-1.056c0-.5522847-.4477153-1-1-1s-1 .4477153-1 1v1.056c-3.94.4-7 3.136-7 6.444s3.06 6.042 7 6.444v8.988c-2.833-.358-5-2.207-5-4.432zm12 0c0 2.225-2.167 4.074-5 4.432v-8.864c2.833.358 5 2.207 5 4.432zm-12-11c0-2.225 2.167-4.074 5-4.432v8.864c-2.833-.358-5-2.207-5-4.432z"/><path id="Shape" d="m17.1 26.151c-.2251459-.1403856-.4968537-.1855403-.7553043-.1255227-.2584505.0600175-.4824547.2202867-.6226957.4455227-3.6332078 5.8354094-3.6289405 13.2297879.011 19.061.2938155.4677852.9112148.6088155 1.379.315s.6088155-.9112148.315-1.379c-3.2326851-5.1827046-3.2361759-11.7528632-.009-16.939.1405653-.2249034.1860306-.4964349.126394-.7548601-.0596367-.2584253-.21949-.4825755-.444394-.6231399z"/><path id="Shape" d="m44.888 45.847c.2246227.1411532.4961288.1872656.7547586.1281877s.4831855-.2185039.6242414-.4431877c3.6440192-5.8322602 3.6440192-13.2317398 0-19.064-.2938155-.4677852-.9112148-.6088155-1.379-.315s-.6088155.9112148-.315 1.379c3.2360644 5.1815825 3.2360644 11.7544175 0 16.936-.1411532.2246227-.1872656.4961288-.1281877.7547586s.2185039.4831855.4431877.6242414z"/><path id="Shape" d="m51.168 55.4c2.47-.422 4.049-1.048 4.949-1.95.64487-.6441851.9686417-1.5425325.883-2.45 0-.5522847-.4477153-1-1-1s-1 .4477153-1 1c0 .75-.18.921-.277 1.013-.41.411-1.419.989-3.891 1.412-.5101039.0893302-.8676144.5533216-.823941 1.0693434s.4740796.913328.991941.9156566c.0561757.0010827.1123494-.002261.168-.01z"/><path id="Shape" d="m11 55.41c.5176778-.0028312.9476106-.4002871.9910107-.9161502s-.3140827-.9795651-.8240107-1.0688498c-2.472-.423-3.48-1-3.911-1.432-.076-.072-.256-.243-.256-.993 0-.5522847-.44771525-1-1-1s-1 .4477153-1 1c-.08452866.8965201.23090842 1.7846475.862 2.427.921.921 2.5 1.547 4.97 1.969.0555497.0090369.1117208.0137178.168.014z"/></g></g></g></svg>