<svg id="Capa_1" enable-background="new 0 0 512 512" height="512" viewBox="0 0 512 512" width="512" xmlns="http://www.w3.org/2000/svg"><g><g><path d="m10 136v60c33.137 0 60 26.863 60 60s-26.863 60-60 60v60h492v-240z" fill="#ccf"/></g><g><path d="m339 246c16.542 0 30-13.458 30-30s-13.458-30-30-30-30 13.458-30 30 13.458 30 30 30z" fill="#fff"/><path d="m419 266c-16.542 0-30 13.458-30 30s13.458 30 30 30 30-13.458 30-30-13.458-30-30-30z" fill="#fff"/><g fill="#b578d3"><path d="m326.071 323.071 120-120c3.905-3.905 3.905-10.237 0-14.143-3.906-3.905-10.236-3.905-14.143 0l-120 120c-3.905 3.905-3.905 10.237 0 14.143 3.906 3.905 10.237 3.906 14.143 0z"/><path d="m502 126h-492c-5.523 0-10 4.477-10 10v60c0 5.523 4.477 10 10 10 27.57 0 50 22.43 50 50s-22.43 50-50 50c-5.523 0-10 4.477-10 10v60c0 5.523 4.477 10 10 10h492c5.522 0 10-4.477 10-10v-240c0-5.523-4.478-10-10-10zm-10 240h-472v-40.712c33.878-4.867 60-34.085 60-69.288s-26.122-64.421-60-69.288v-40.712h472z"/><path d="m196 206h60c5.522 0 10-4.477 10-10s-4.478-10-10-10h-60c-5.523 0-10 4.477-10 10s4.477 10 10 10z"/><path d="m136 266h120c5.522 0 10-4.477 10-10s-4.478-10-10-10h-120c-5.523 0-10 4.477-10 10s4.477 10 10 10z"/><path d="m136 326h60c5.523 0 10-4.477 10-10s-4.477-10-10-10h-60c-5.523 0-10 4.477-10 10s4.477 10 10 10z"/><path d="m136 206h20c5.523 0 10-4.477 10-10s-4.477-10-10-10h-20c-5.523 0-10 4.477-10 10s4.477 10 10 10z"/><path d="m256 306h-20c-5.523 0-10 4.477-10 10s4.477 10 10 10h20c5.522 0 10-4.477 10-10s-4.478-10-10-10z"/></g></g></g></svg>