<svg height="512" viewBox="0 0 512 512" width="512" xmlns="http://www.w3.org/2000/svg" xmlns:xlink="http://www.w3.org/1999/xlink"><linearGradient id="New_Gradient_Swatch_9" gradientUnits="userSpaceOnUse" x1="67.514" x2="253.898" y1="292.485" y2="106.101"><stop offset="0" stop-color="#f9dea7"/><stop offset="1" stop-color="#fbebca"/></linearGradient><linearGradient id="New_Gradient_Swatch_1" gradientUnits="userSpaceOnUse" x1="83.513" x2="284.486" y1="308.487" y2="107.514"><stop offset="0" stop-color="#fbebca"/><stop offset="1" stop-color="#fcf2dc"/></linearGradient><linearGradient id="linear-gradient" gradientUnits="userSpaceOnUse" x1="16.475" x2="339.367" y1="513.446" y2="190.554"><stop offset="0" stop-color="#8f86c0"/><stop offset="1" stop-color="#c7c3df"/></linearGradient><linearGradient id="New_Gradient_Swatch_11" gradientUnits="userSpaceOnUse" x1="290.558" x2="406.833" y1="410.138" y2="293.862"><stop offset="0" stop-color="#d5d2e7"/><stop offset="1" stop-color="#f1f0f7"/></linearGradient><g id="_02-E-wallet" data-name="02-E-wallet"><g id="gradient"><path d="m282.858 186.891-45.174-96a12 12 0 0 0 -17.227-5.061l-178.827 112a12 12 0 0 0 -5.272 13.081l16 64a12 12 0 0 0 15.95 8.289l208-80a12 12 0 0 0 6.55-16.309z" fill="url(#New_Gradient_Swatch_9)"/><path d="m331.642 205.089-16-64a12 12 0 0 0 -14.553-8.731l-256 64a12 12 0 0 0 -8.731 14.553l16 64a11.988 11.988 0 0 0 14.553 8.731l256-64a12 12 0 0 0 8.731-14.553z" fill="url(#New_Gradient_Swatch_1)"/><path d="m320 196h-304a12 12 0 0 0 -12 12v288a12 12 0 0 0 12 12h304a60.068 60.068 0 0 0 60-60v-192a60.068 60.068 0 0 0 -60-60z" fill="url(#linear-gradient)"/><path d="m400 292h-96a28.032 28.032 0 0 0 -28 28v64a28.032 28.032 0 0 0 28 28h96a12 12 0 0 0 12-12v-96a12 12 0 0 0 -12-12z" fill="url(#New_Gradient_Swatch_11)"/><circle cx="332" cy="352" fill="#aba4d0" r="12"/><path d="m176 340h-32a20 20 0 0 1 0-40h40a12.013 12.013 0 0 1 12 12 12 12 0 0 0 24 0 36.04 36.04 0 0 0 -36-36h-12v-20a12 12 0 0 0 -24 0v20h-4a44 44 0 0 0 0 88h32a20 20 0 0 1 0 40h-40a12.013 12.013 0 0 1 -12-12 12 12 0 0 0 -24 0 36.04 36.04 0 0 0 36 36h12v20a12 12 0 0 0 24 0v-20h4a44 44 0 0 0 0-88z" fill="#f1f0f7"/><path d="m400 220a12 12 0 0 1 -12-12 36.04 36.04 0 0 0 -36-36 12 12 0 0 1 0-24 60.068 60.068 0 0 1 60 60 12 12 0 0 1 -12 12z" fill="#95d1d6"/><path d="m448 220a12 12 0 0 1 -12-12 84.1 84.1 0 0 0 -84-84 12 12 0 0 1 0-24 108.123 108.123 0 0 1 108 108 12 12 0 0 1 -12 12z" fill="#b8e1e3"/><path d="m496 220a12 12 0 0 1 -12-12c0-72.785-59.215-132-132-132a12 12 0 0 1 0-24c86.019 0 156 69.981 156 156a12 12 0 0 1 -12 12z" fill="#dcf0f1"/></g></g></svg>