<svg id="Layer_1" height="512" viewBox="0 0 512 512" width="512" xmlns="http://www.w3.org/2000/svg" xmlns:xlink="http://www.w3.org/1999/xlink" data-name="Layer 1"><linearGradient id="linear-gradient" gradientUnits="userSpaceOnUse" x1="373.039" x2="373.039" y1="458" y2="89.951"><stop offset=".322" stop-color="#a163f5"/><stop offset=".466" stop-color="#b074ee"/><stop offset=".752" stop-color="#d8a1dd"/><stop offset=".898" stop-color="#efbad3"/></linearGradient><linearGradient id="linear-gradient-2" x1="76" x2="76" xlink:href="#linear-gradient" y1="458" y2="89.951"/><linearGradient id="linear-gradient-4" x1="241.523" x2="241.523" xlink:href="#linear-gradient" y1="458" y2="89.951"/><linearGradient id="linear-gradient-5" x1="256" x2="256" xlink:href="#linear-gradient" y1="458" y2="89.951"/><path d="m373.039 333.121a20.5 20.5 0 0 0 -20.477 20.479v7.886a20.477 20.477 0 1 0 40.954 0v-7.886a20.5 20.5 0 0 0 -20.477-20.479zm8.477 28.362a8.477 8.477 0 0 1 -16.954 0v-7.883a8.477 8.477 0 0 1 16.954 0z" fill="url(#linear-gradient)"/><path d="m76 249a6 6 0 0 0 -6 6v2a6 6 0 0 0 12 0v-2a6 6 0 0 0 -6-6z" fill="url(#linear-gradient-2)"/><path d="m76 277a6 6 0 0 0 -6 6v92a6 6 0 0 0 12 0v-92a6 6 0 0 0 -6-6z" fill="url(#linear-gradient-2)"/><path d="m247.113 180.4a12.018 12.018 0 0 1 24.035-.126c0 .042-.006.083-.006.126s0 .083.006.125a12.031 12.031 0 0 1 -12.014 11.9 6 6 0 0 0 0 12 24.064 24.064 0 0 0 23.266-18.025h5.48a6 6 0 0 0 0-12h-5.48a24.022 24.022 0 0 0 -47.283 6 12.021 12.021 0 1 1 -12.02-12.021 6 6 0 0 0 0-12 24.063 24.063 0 0 0 -23.266 18.021h-4.66a6 6 0 0 0 0 12h4.66a24.022 24.022 0 0 0 47.282-6z" fill="url(#linear-gradient-4)"/><path d="m448.888 294.516h-4.168v-51.482a34.954 34.954 0 0 0 -34.954-34.953h-13.212v-71.981a25.3 25.3 0 0 0 -33.119-24.065l-10.713 3.48v-94.685a15.848 15.848 0 0 0 -15.83-15.83h-190.738a15.847 15.847 0 0 0 -15.829 15.83v166.92l-65.191 21.176a34.959 34.959 0 0 0 -27.324 34.108v229.012a34.953 34.953 0 0 0 34.954 34.954h337a34.954 34.954 0 0 0 34.954-34.954v-51.481h4.168a25.331 25.331 0 0 0 25.3-25.3v-75.447a25.33 25.33 0 0 0 -25.298-25.302zm-96.166-166.388 14.42-4.685a13.3 13.3 0 0 1 17.412 12.657v71.986h-31.832zm-210.4-107.3a3.834 3.834 0 0 1 3.832-3.828h190.738a3.834 3.834 0 0 1 3.83 3.83v187.251h-12.515v-138.906a14.247 14.247 0 0 0 -11.156-13.857c-9.425-2.042-15.932-9.291-16.192-18.037a6 6 0 0 0 -6-5.822h-106.674a6 6 0 0 0 -6 5.822 18.5 18.5 0 0 1 -14.655 18.037 14.1 14.1 0 0 0 -11.055 13.834v138.929h-14.15zm99.2 80.263a79.432 79.432 0 0 0 -73.045 48.418v-80.357a2.164 2.164 0 0 1 1.692-2.127 30.408 30.408 0 0 0 23.318-23.566h96.138c2.707 11.541 12.275 20.853 24.885 23.586a2.182 2.182 0 0 1 1.7 2.13v84.555a79.439 79.439 0 0 0 -74.687-52.637zm74.685 106.009v.977h-.367c.121-.323.25-.646.367-.977zm-185.882-6.737v7.714h-23.746zm302.4 271.679a22.954 22.954 0 0 1 -22.959 22.958h-337a22.954 22.954 0 0 1 -22.956-22.954v-229.012a22.953 22.953 0 0 1 22.954-22.953h113.513a6 6 0 0 0 0-12h-6.127a67.312 67.312 0 1 1 122.746 0h-66.619a6 6 0 0 0 0 12h173.489a22.954 22.954 0 0 1 22.954 22.954v51.481h-79.949a34.993 34.993 0 0 0 -34.953 34.953v56.142a34.993 34.993 0 0 0 34.953 34.954h79.949zm29.47-76.784a13.318 13.318 0 0 1 -13.3 13.3h-96.124a22.98 22.98 0 0 1 -22.953-22.954v-56.135a22.979 22.979 0 0 1 22.953-22.953h96.117a13.317 13.317 0 0 1 13.3 13.3z" fill="url(#linear-gradient-5)"/></svg>