<svg id="Layer_35" enable-background="new 0 0 64 64" height="512" viewBox="0 0 64 64" width="512" xmlns="http://www.w3.org/2000/svg" xmlns:xlink="http://www.w3.org/1999/xlink"><linearGradient id="SVGID_1_" gradientUnits="userSpaceOnUse" x1="32" x2="32" y1="63" y2="1"><stop offset="0" stop-color="#9f2fff"/><stop offset="1" stop-color="#0bb1d3"/></linearGradient><path d="m55 6c0-2.757-2.243-5-5-5h-44c-2.757 0-5 2.243-5 5v27h8v25c0 2.757 2.243 5 5 5h44c2.757 0 5-2.243 5-5v-5h-8zm-46 25h-6v-25c0-1.654 1.346-3 3-3s3 1.346 3 3zm8 27c0 1.654-1.346 3-3 3s-3-1.346-3-3v-52c0-1.13-.391-2.162-1.026-3h40.026c1.654 0 3 1.346 3 3v47h-2v-16h-6v16h-2v-12h-6v12h-2v-10h-6v10h-2v-6h-6v6h-4zm32-5h-2v-14h2zm-8 0h-2v-10h2zm-8 0h-2v-8h2zm-8 0h-2v-4h2zm36 5c0 1.654-1.346 3-3 3h-40.002c.629-.836 1.002-1.875 1.002-3v-3h42zm-42-39v-2c0-1.103-.897-2-2-2-2.206 0-4-1.794-4-4v-4h3v-2h2v2.142c1.721.447 3 1.999 3 3.858h-2c0-1.103-.897-2-2-2h-2v2c0 1.103.897 2 2 2 2.206 0 4 1.794 4 4v4h-3v2h-2v-2.142c-1.721-.447-3-1.999-3-3.858h2c0 1.103.897 2 2 2zm32-14h-28v18h28zm-2 16h-24v-14h24zm-20-10h-2v-2h2zm18 0h-16v-2h16zm-18 4h-2v-2h2zm18 0h-16v-2h16zm-18 4h-2v-2h2zm18 0h-16v-2h16zm-3.414 12-5.586 5.586-4-4-10.707 10.707 1.414 1.414 9.293-9.293 4 4 7-7 3.542 3.542 2.832-11.33-11.33 2.832zm3.872 1.044-3.502-3.502 4.67-1.168zm-32.458-3.044h-2v-2h2zm2-2h2v2h-2zm4 0h2v2h-2zm2 6h-10v-2h10zm0 4h-10v-2h10zm36 22h-2v-2h2zm-4 0h-2v-2h2zm-4 0h-2v-2h2zm-46-32h2v2h-2zm0-4h2v2h-2zm0-4h2v2h-2z" fill="url(#SVGID_1_)"/></svg>