<svg id="Capa_1" enable-background="new 0 0 439.734 439.734" height="512" viewBox="0 0 439.734 439.734" width="512" xmlns="http://www.w3.org/2000/svg"><g><path d="m426.689 232.994c-.045 114.225-92.68 206.785-206.904 206.739s-206.785-92.679-206.74-206.903c.043-108.552 84.003-198.599 192.286-206.228 3.165-.215 6.383-.322 9.601-.429 1.609-.054 3.272-.054 4.935-.054 8.576-.504 15.936 6.039 16.441 14.615.504 8.576-6.039 15.936-14.615 16.441-.608.036-1.218.036-1.826 0-1.663 0-3.272 0-4.935.054-3.218.107-6.436.268-9.601.59-96.757 8.04-168.677 92.994-160.638 189.752s92.994 168.677 189.752 160.638c91.14-7.573 161.251-83.759 161.242-175.213.006-8.561 6.951-15.496 15.512-15.49 8.552.004 15.484 6.936 15.49 15.488z" fill="#f6b863"/><path d="m277.311 43.283-59.214 39.637c-.899.643-2.148.435-2.791-.463-.239-.335-.37-.735-.373-1.146v-79.328c.01-1.105.914-1.992 2.019-1.982.411.004.811.134 1.146.373l59.215 39.637c.904.641 1.116 1.893.475 2.797-.132.183-.293.344-.477.475z" fill="#f6b863"/><path d="m233.335 365.718c-4.472.476-8.966.709-13.463.697-33.863.028-66.467-12.841-91.182-35.99l48.058-43.016c12.243 9.779 27.449 15.104 43.118 15.099.43.01.86-.008 1.287-.054z" fill="#dbd8dd"/><path d="m150.36 232.914c-.039 13.043 3.645 25.827 10.62 36.848l-48.058 42.963c-37.054-49.521-35.144-118.035 4.613-165.415l45.484 45.591c-8.261 11.706-12.684 25.687-12.659 40.013z" fill="#2cbfae"/><path d="m208.019 100.057v64.364c-10.163 1.73-19.806 5.726-28.213 11.693l-45.537-45.537c20.839-17.55 46.603-28.212 73.75-30.52z" fill="#69b0ee"/><path d="m353.373 232.914c.013 59.569-39.444 111.937-96.706 128.352l-12.175-63.291c35.916-13.611 53.998-53.76 40.387-89.677-8.714-22.994-28.924-39.678-53.152-43.878v-64.364c68.838 6.096 121.627 63.75 121.646 132.858z" fill="#ef5261"/><path d="m214.932 26.173v31.055c-3.218.107-6.436.268-9.601.59v-31.216c3.165-.215 6.383-.322 9.601-.429z" fill="#eaa14e"/></g></svg>