<svg height="512" viewBox="0 0 60 60" width="512" xmlns="http://www.w3.org/2000/svg"><g id="006---Family-Tree" fill="none"><g id="Icons" transform="translate(1 1)"><rect id="Rectangle-path" fill="#cad9fc" height="14" rx="2" width="14"/><rect id="Rectangle-path" fill="#cad9fc" height="14" rx="2" width="14" x="22"/><rect id="Rectangle-path" fill="#cad9fc" height="14" rx="2" width="14" x="44"/><rect id="Rectangle-path" fill="#cad9fc" height="14" rx="2" width="14" x="11" y="22"/><rect id="Rectangle-path" fill="#cad9fc" height="14" rx="2" width="14" x="33" y="22"/><rect id="Rectangle-path" fill="#cad9fc" height="14" rx="2" width="14" x="22" y="44"/><g fill="#e8edfc"><rect id="Rectangle-path" height="14" rx="2" width="11"/><rect id="Rectangle-path" height="14" rx="2" width="11" x="22"/><rect id="Rectangle-path" height="14" rx="2" width="11" x="44"/><rect id="Rectangle-path" height="14" rx="2" width="11" x="11" y="22"/><rect id="Rectangle-path" height="14" rx="2" width="11" x="33" y="22"/><rect id="Rectangle-path" height="14" rx="2" width="11" x="22" y="44"/><circle id="Oval" cx="7" cy="6" r="2"/><path id="Shape" d="m7 8c1.65685425 0 3 1.34314575 3 3v3h-6v-3c0-1.65685425 1.34314575-3 3-3z"/><circle id="Oval" cx="29" cy="6" r="2"/><path id="Shape" d="m29 8c1.6568542 0 3 1.34314575 3 3v3h-6v-3c0-1.65685425 1.3431458-3 3-3z"/><circle id="Oval" cx="18" cy="28" r="2"/><path id="Shape" d="m18 30c1.6568542 0 3 1.3431458 3 3v3h-6v-3c0-1.6568542 1.3431458-3 3-3z"/><circle id="Oval" cx="40" cy="28" r="2"/><path id="Shape" d="m40 30c1.6568542 0 3 1.3431458 3 3v3h-6v-3c0-1.6568542 1.3431458-3 3-3z"/><circle id="Oval" cx="29" cy="50" r="2"/><path id="Shape" d="m29 52c1.6568542 0 3 1.3431458 3 3v3h-6v-3c0-1.6568542 1.3431458-3 3-3z"/><circle id="Oval" cx="51" cy="6" r="2"/><path id="Shape" d="m51 8c1.6568542 0 3 1.34314575 3 3v3h-6v-3c0-1.65685425 1.3431458-3 3-3z"/></g><path id="Shape" d="m13 36h3c-1.1032223-.0032457-1.9967543-.8967777-2-2v-10c.0032238-1.1032314.8967686-1.9967762 2-2h-3c-1.1032314.0032238-1.9967762.8967686-2 2v10c.0032457 1.1032223.8967777 1.9967543 2 2z" fill="#fff"/><path id="Shape" d="m22 46v10c.0032457 1.1032223.8967777 1.9967543 2 2h3c-1.1032223-.0032457-1.9967543-.8967777-2-2v-10c.0032238-1.1032314.8967686-1.9967762 2-2h-3c-1.1032314.0032238-1.9967762.8967686-2 2z" fill="#fff"/><path id="Shape" d="m2 14h3c-1.10322231-.0032457-1.99675434-.8967777-2-2v-10c.00322381-1.10323139.89676861-1.99677619 2-2h-3c-1.10323139.00322381-1.99677619.89676861-2 2v10c.00324566 1.1032223.89677769 1.9967543 2 2z" fill="#fff"/></g><path id="Shape" d="m57 0h-10c-1.6561049.00180771-2.9981923 1.34389511-3 3v10c.0018077 1.6561049 1.3438951 2.9981923 3 3h3v1c-.0005512.5520563-.4479437.9994488-1 1h-17c-.5520563-.0005512-.9994488-.4479437-1-1v-1h4c1.6561049-.0018077 2.9981923-1.3438951 3-3v-10c-.0018077-1.65610489-1.3438951-2.99819229-3-3h-10c-1.6561049.00180771-2.9981923 1.34389511-3 3v10c.0018077 1.6561049 1.3438951 2.9981923 3 3h4v1c-.0005512.5520563-.4479437.9994488-1 1h-18c-.55205626-.0005512-.99944877-.4479437-1-1v-1h4c1.6561049-.0018077 2.9981923-1.3438951 3-3v-10c-.0018077-1.65610489-1.3438951-2.99819229-3-3h-10c-1.65610489.00180771-2.99819229 1.34389511-3 3v10c.00180771 1.6561049 1.34389511 2.9981923 3 3h4v1c.00180771 1.6561049 1.34389511 2.9981923 3 3h8v2h-4c-1.6561049.0018077-2.9981923 1.3438951-3 3v10c.0018077 1.6561049 1.3438951 2.9981923 3 3h4v1c.0018077 1.6561049 1.3438951 2.9981923 3 3h8v2h-4c-1.6561049.0018077-2.9981923 1.3438951-3 3v10c.0018077 1.6561049 1.3438951 2.9981923 3 3h10c1.6561049-.0018077 2.9981923-1.3438951 3-3v-10c-.0018077-1.6561049-1.3438951-2.9981923-3-3h-4v-2h8c1.6561049-.0018077 2.9981923-1.3438951 3-3v-1h4c1.6561049-.0018077 2.9981923-1.3438951 3-3v-10c-.0018077-1.6561049-1.3438951-2.9981923-3-3h-4v-2h7c1.6561049-.0018077 2.9981923-1.3438951 3-3v-1h5c1.6561049-.0018077 2.9981923-1.3438951 3-3v-10c-.0018077-1.65610489-1.3438951-2.99819229-3-3zm-28 7c0-.55228475.4477153-1 1-1s1 .44771525 1 1-.4477153 1-1 1c-.5520563-.00055123-.9994488-.44794374-1-1zm-5 6v-10c.0005512-.55205626.4479437-.99944877 1-1h10c.5520563.00055123.9994488.44794374 1 1v10c-.0005512.5520563-.4479437.9994488-1 1h-1v-2c-.0034303-1.2613689-.6039465-2.44661126-1.619-3.19543.3991038-.51711866.6166582-1.1513548.619-1.80457 0-1.65685425-1.3431458-3-3-3s-3 1.34314575-3 3c.0023418.6532152.2198962 1.28745134.619 1.80457-1.0150535.74881874-1.6155697 1.9340611-1.619 3.19543v2h-1c-.5520563-.0005512-.9994488-.4479437-1-1zm4-1c0-1.1045695.8954305-2 2-2s2 .8954305 2 2v2h-4zm-21-5c0-.55228475.44771525-1 1-1s1 .44771525 1 1-.44771525 1-1 1c-.55205626-.00055123-.99944877-.44794374-1-1zm-5 6v-10c.00055123-.55205626.44794374-.99944877 1-1h10c.5520563.00055123.9994488.44794374 1 1v10c-.0005512.5520563-.4479437.9994488-1 1h-1v-2c-.0034303-1.2613689-.6039465-2.44661126-1.619-3.19543.3991038-.51711866.6166582-1.1513548.619-1.80457 0-1.65685425-1.34314575-3-3-3s-3 1.34314575-3 3c.00234176.6532152.21989617 1.28745134.619 1.80457-1.01505355.74881874-1.61556973 1.9340611-1.619 3.19543v2h-1c-.55205626-.0005512-.99944877-.4479437-1-1zm4-1c0-1.1045695.8954305-2 2-2s2 .8954305 2 2v2h-4zm23 39c0-.5522847.4477153-1 1-1s1 .4477153 1 1-.4477153 1-1 1c-.5520563-.0005512-.9994488-.4479437-1-1zm-1 7v-2c0-1.1045695.8954305-2 2-2s2 .8954305 2 2v2zm8-11v10c-.0005512.5520563-.4479437.9994488-1 1h-1v-2c-.0034303-1.2613689-.6039465-2.4466113-1.619-3.19543.3991038-.5171187.6166582-1.1513548.619-1.80457 0-1.6568542-1.3431458-3-3-3s-3 1.3431458-3 3c.0023418.6532152.2198962 1.2874513.619 1.80457-1.0150535.7488187-1.6155697 1.9340611-1.619 3.19543v2h-1c-.5520563-.0005512-.9994488-.4479437-1-1v-10c.0005512-.5520563.4479437-.9994488 1-1h10c.5520563.0005512.9994488.4479437 1 1zm-23-12v-10c.0005512-.5520563.4479437-.9994488 1-1h10c.5520563.0005512.9994488.4479437 1 1v10c-.0005512.5520563-.4479437.9994488-1 1h-1v-2c-.0034303-1.2613689-.6039465-2.4466113-1.619-3.19543.3991038-.5171187.6166582-1.1513548.619-1.80457 0-1.6568542-1.3431458-3-3-3s-3 1.3431458-3 3c.0023418.6532152.2198962 1.2874513.619 1.80457-1.0150535.7488187-1.6155697 1.9340611-1.619 3.19543v2h-1c-.5520563-.0005512-.9994488-.4479437-1-1zm5-6c0-.5522847.4477153-1 1-1s1 .4477153 1 1-.4477153 1-1 1c-.5520563-.0005512-.9994488-.4479437-1-1zm-1 5c0-1.1045695.8954305-2 2-2s2 .8954305 2 2v2h-4zm22 2v-2c0-1.1045695.8954305-2 2-2s2 .8954305 2 2v2zm1-7c0-.5522847.4477153-1 1-1s1 .4477153 1 1-.4477153 1-1 1c-.5520563-.0005512-.9994488-.4479437-1-1zm7-4v10c-.0005512.5520563-.4479437.9994488-1 1h-1v-2c-.0034303-1.2613689-.6039465-2.4466113-1.619-3.19543.3991038-.5171187.6166582-1.1513548.619-1.80457 0-1.6568542-1.3431458-3-3-3s-3 1.3431458-3 3c.0023418.6532152.2198962 1.2874513.619 1.80457-1.0150535.7488187-1.6155697 1.9340611-1.619 3.19543v2h-1c-.5520563-.0005512-.9994488-.4479437-1-1v-10c.0005512-.5520563.4479437-.9994488 1-1h10c.5520563.0005512.9994488.4479437 1 1zm-7-3h-4c-1.6561049.0018077-2.9981923 1.3438951-3 3v10c.0018077 1.6561049 1.3438951 2.9981923 3 3h4v1c-.0005512.5520563-.4479437.9994488-1 1h-18c-.5520563-.0005512-.9994488-.4479437-1-1v-1h4c1.6561049-.0018077 2.9981923-1.3438951 3-3v-10c-.0018077-1.6561049-1.3438951-2.9981923-3-3h-4v-2h8c.7405058-.0023042 1.4535741-.2804971 2-.78027.5464259.4997729 1.2594942.7779658 2 .78027h8zm11-15c0-.55228475.4477153-1 1-1s1 .44771525 1 1-.4477153 1-1 1c-.5520563-.00055123-.9994488-.44794374-1-1zm-1 7v-2c0-1.1045695.8954305-2 2-2s2 .8954305 2 2v2zm8-1c-.0005512.5520563-.4479437.9994488-1 1h-1v-2c-.0034303-1.2613689-.6039465-2.44661126-1.619-3.19543.3991038-.51711866.6166582-1.1513548.619-1.80457 0-1.65685425-1.3431458-3-3-3s-3 1.34314575-3 3c.0023418.6532152.2198962 1.28745134.619 1.80457-1.0150535.74881874-1.6155697 1.9340611-1.619 3.19543v2h-1c-.5520563-.0005512-.9994488-.4479437-1-1v-10c.0005512-.55205626.4479437-.99944877 1-1h10c.5520563.00055123.9994488.44794374 1 1z" fill="#428dff"/></g></svg>