<svg height="512" viewBox="0 0 58 58" width="512" xmlns="http://www.w3.org/2000/svg"><g id="Page-1" fill="none" fill-rule="evenodd"><g id="019---Pin-Number" fill-rule="nonzero"><rect id="Rectangle-path" fill="#2fa8cc" height="32" rx="6" width="50" x="4"/><path id="Shape" d="m19 7v2h-6v-4h4c1.1032019.0032948 1.9967052.89679813 2 2z" fill="#f0c419"/><path id="Shape" d="m13 5v4h-4v-2c.0032948-1.10320187.89679813-1.9967052 2-2z" fill="#f29c1f"/><path id="Shape" d="m13 9v4h-2c-1.10320187-.0032948-1.9967052-.8967981-2-2v-2z" fill="#f0c419"/><path id="Shape" d="m19 9v2c-.0032948 1.1032019-.8967981 1.9967052-2 2h-4v-4z" fill="#f29c1f"/><g fill="#ecf0f1"><path id="Shape" d="m17 21h-6c-.5522847 0-1-.4477153-1-1s.4477153-1 1-1h6c.5522847 0 1 .4477153 1 1s-.4477153 1-1 1z"/><path id="Shape" d="m27 21h-6c-.5522847 0-1-.4477153-1-1s.4477153-1 1-1h6c.5522847 0 1 .4477153 1 1s-.4477153 1-1 1z"/><path id="Shape" d="m37 21h-6c-.5522847 0-1-.4477153-1-1s.4477153-1 1-1h6c.5522847 0 1 .4477153 1 1s-.4477153 1-1 1z"/><path id="Shape" d="m47 21h-6c-.5522847 0-1-.4477153-1-1s.4477153-1 1-1h6c.5522847 0 1 .4477153 1 1s-.4477153 1-1 1z"/><path id="Shape" d="m13 27h-2c-.5522847 0-1-.4477153-1-1s.4477153-1 1-1h2c.5522847 0 1 .4477153 1 1s-.4477153 1-1 1z"/><path id="Shape" d="m20 27h-2c-.5522847 0-1-.4477153-1-1s.4477153-1 1-1h2c.5522847 0 1 .4477153 1 1s-.4477153 1-1 1z"/></g><circle id="Oval" cx="46" cy="9" fill="#f0c419" r="3"/><circle id="Oval" cx="40" cy="9" fill="#ecf0f1" r="3"/><path id="Shape" d="m32.25 52h-29.25c-1.65685425 0-3-1.3431458-3-3v-10c0-1.6568542 1.34314575-3 3-3h52c1.6568542 0 3 1.3431458 3 3v10c0 1.6568542-1.3431458 3-3 3z" fill="#3d324c"/><path id="Shape" d="m10.57 44.155 1.985-1.323c.297245-.1982824.4661283-.5400812.4430332-.8966441s-.2346599-.6737195-.555-.832-.7007882-.1336383-.9980332.0646441l-1.445.964v-2.132c0-.5522847-.44771525-1-1-1s-1 .4477153-1 1v2.132l-1.445-.964c-.45950091-.306518-1.08048193-.1825009-1.38699996.277-.30651802.4595009-.18250092 1.080482.27699996 1.387l1.985 1.323-2.137 2.138c-.25995658.2510745-.3642126.6228779-.27269716.9725073.09151544.3496295.3645604.6226744.71418984.7141899.34962943.0915154.72143285-.0127406.97250732-.2726972l2.293-2.293 2.293 2.293c.3923789.3789722 1.0160848.3735524 1.4018186-.0121814s.3911536-1.0094397.0121814-1.4018186z" fill="#ecf0f1"/><path id="Shape" d="m24.707 46.293-2.137-2.138 1.985-1.323c.297245-.1982824.4661283-.5400812.4430332-.8966441s-.2346599-.6737195-.555-.832-.7007882-.1336383-.9980332.0646441l-1.445.964v-2.132c0-.5522847-.4477153-1-1-1s-1 .4477153-1 1v2.132l-1.445-.964c-.4595009-.306518-1.0804819-.1825009-1.387.277-.306518.4595009-.1825009 1.080482.277 1.387l1.985 1.323-2.137 2.138c-.2599566.2510745-.3642126.6228779-.2726972.9725073.0915155.3496295.3645604.6226744.7141899.7141899.3496294.0915154.7214328-.0127406.9725073-.2726972l2.293-2.293 2.293 2.293c.3923789.3789722 1.0160848.3735524 1.4018186-.0121814s.3911536-1.0094397.0121814-1.4018186z" fill="#ecf0f1"/><path id="Shape" d="m58 39v10c0 1.6568542-1.3431458 3-3 3h-11.82l-1.86-6.84c-.0778895-.2757727-.2703439-.5048796-.5285361-.6291943-.2581921-.1243148-.5573096-.1318907-.8214639-.0208057-6.29 2.54-10.73-5.08-10.96-5.49-.0057054-.0051905-.0092708-.0123214-.01-.02 0 0-1-3 2-3h24c1.6568542 0 3 1.3431458 3 3z" fill="#894b9d"/><path id="Shape" d="m43.567 55.419c-6.744 6.273-10.858-.926-10.567-.419l-4-16s4.512 8.122 10.965 5.505c.2645367-.111378.5641783-.1037157.8226768.0210371s.4509284.3545669.5283232.6309629l2.527 9.268c.0991926.3568786-.0070078.7393538-.276.994z" fill="#955ba5"/></g></g></svg>